<svg width="37" height="37" viewBox="0 0 37 37" fill="none" xmlns="http://www.w3.org/2000/svg">
<path d="M28.625 9.19043V23.8154C28.625 24.1138 28.5065 24.3999 28.2955 24.6109C28.0845 24.8219 27.7984 24.9404 27.5 24.9404C27.2016 24.9404 26.9155 24.8219 26.7045 24.6109C26.4935 24.3999 26.375 24.1138 26.375 23.8154V11.9059L10.296 27.9864C10.0849 28.1975 9.79855 28.3161 9.50002 28.3161C9.20148 28.3161 8.91517 28.1975 8.70408 27.9864C8.49298 27.7753 8.37439 27.489 8.37439 27.1904C8.37439 26.8919 8.49298 26.6056 8.70408 26.3945L24.7845 10.3154H12.875C12.5766 10.3154 12.2905 10.1969 12.0795 9.98592C11.8685 9.77495 11.75 9.4888 11.75 9.19043C11.75 8.89206 11.8685 8.60591 12.0795 8.39493C12.2905 8.18396 12.5766 8.06543 12.875 8.06543H27.5C27.7984 8.06543 28.0845 8.18396 28.2955 8.39493C28.5065 8.60591 28.625 8.89206 28.625 9.19043Z" fill="white"/>
</svg>
