<svg width="37" height="36" viewBox="0 0 37 36" fill="none" xmlns="http://www.w3.org/2000/svg">
<path d="M28.625 9V23.625C28.625 23.9234 28.5065 24.2095 28.2955 24.4205C28.0845 24.6315 27.7984 24.75 27.5 24.75C27.2016 24.75 26.9155 24.6315 26.7045 24.4205C26.4935 24.2095 26.375 23.9234 26.375 23.625V11.7155L10.296 27.7959C10.0849 28.007 9.79855 28.1256 9.50002 28.1256C9.20148 28.1256 8.91517 28.007 8.70408 27.7959C8.49298 27.5848 8.37439 27.2985 8.37439 27C8.37439 26.7015 8.49298 26.4152 8.70408 26.2041L24.7845 10.125H12.875C12.5766 10.125 12.2905 10.0065 12.0795 9.79549C11.8685 9.58452 11.75 9.29837 11.75 9C11.75 8.70163 11.8685 8.41548 12.0795 8.20451C12.2905 7.99353 12.5766 7.875 12.875 7.875H27.5C27.7984 7.875 28.0845 7.99353 28.2955 8.20451C28.5065 8.41548 28.625 8.70163 28.625 9Z" fill="#111111"/>
</svg>
