<svg width="15" height="15" viewBox="0 0 15 15" fill="none" xmlns="http://www.w3.org/2000/svg">
<path d="M7.47918 0.0224609C11.6099 0.0224609 14.9583 3.37088 14.9583 7.50163C14.9583 11.6324 11.6099 14.9808 7.47918 14.9808C6.15742 14.9831 4.85891 14.6333 3.71716 13.9674L0.00300323 14.9808L1.01419 11.2651C0.347762 10.123 -0.0023048 8.82396 1.14197e-05 7.50163C1.14197e-05 3.37088 3.34844 0.0224609 7.47918 0.0224609ZM4.93028 3.98642L4.78069 3.9924C4.68398 3.99907 4.58949 4.02447 4.50247 4.06719C4.42138 4.1132 4.34732 4.17063 4.28258 4.23772C4.19283 4.32223 4.14197 4.39553 4.08738 4.46658C3.81074 4.82626 3.66179 5.26783 3.66406 5.72159C3.66555 6.08806 3.76128 6.44482 3.91087 6.77839C4.21677 7.45301 4.72011 8.16727 5.38426 8.82918C5.54432 8.98849 5.70138 9.14854 5.87041 9.29737C6.69568 10.0239 7.67908 10.5479 8.74241 10.8276L9.16723 10.8927C9.30559 10.9002 9.44396 10.8897 9.58307 10.883C9.80085 10.8715 10.0135 10.8125 10.2061 10.7102C10.3039 10.6596 10.3995 10.6047 10.4925 10.5456C10.4925 10.5456 10.5242 10.5242 10.586 10.4783C10.687 10.4035 10.7491 10.3504 10.8328 10.2629C10.8957 10.1981 10.948 10.1228 10.9899 10.0371C11.0482 9.91515 11.1066 9.68255 11.1305 9.48884C11.1485 9.34075 11.1432 9.25998 11.141 9.20987C11.138 9.12984 11.0714 9.04682 10.9989 9.01167L10.5636 8.81647C10.5636 8.81647 9.9129 8.533 9.51501 8.35201C9.47336 8.33388 9.42875 8.32349 9.38337 8.32134C9.3322 8.31599 9.28047 8.3217 9.23169 8.33809C9.18291 8.35448 9.13822 8.38116 9.10066 8.41633C9.09692 8.41483 9.04681 8.45747 8.50607 9.11264C8.47503 9.15434 8.43228 9.18586 8.38326 9.20318C8.33424 9.2205 8.28118 9.22282 8.23083 9.20987C8.18209 9.19688 8.13435 9.18038 8.08798 9.16051C7.99524 9.12162 7.96308 9.10666 7.89951 9.07973C7.47011 8.89268 7.07264 8.63957 6.72154 8.32957C6.6273 8.2473 6.53979 8.15755 6.45005 8.07079C6.15582 7.78898 5.89939 7.4702 5.68717 7.12243L5.64304 7.05138C5.61183 7.00336 5.58623 6.95192 5.56676 6.89806C5.53833 6.78811 5.61238 6.69986 5.61238 6.69986C5.61238 6.69986 5.79412 6.50091 5.87864 6.39321C5.96091 6.28851 6.03046 6.18679 6.07534 6.11424C6.16359 5.97214 6.19127 5.82629 6.1449 5.71336C5.93548 5.20178 5.71908 4.69295 5.4957 4.18686C5.45158 4.08664 5.32069 4.01484 5.20177 4.00063C5.16138 3.99564 5.121 3.99165 5.08061 3.98866C4.98019 3.9829 4.87949 3.9839 4.7792 3.99165L4.93028 3.98642Z" fill="white"/>
</svg>
