<svg width="15" height="15" viewBox="0 0 15 15" fill="none" xmlns="http://www.w3.org/2000/svg">
<path d="M7.47917 0.0224609C3.34849 0.0224609 0 3.37095 0 7.50163C0 11.6323 3.34849 14.9808 7.47917 14.9808C11.6098 14.9808 14.9583 11.6323 14.9583 7.50163C14.9583 3.37095 11.6098 0.0224609 7.47917 0.0224609ZM10.3555 8.46068C10.3555 8.46068 11.017 9.11354 11.1798 9.41661C11.1845 9.42336 11.1873 9.42855 11.1884 9.43219C11.2543 9.54282 11.2707 9.63033 11.2374 9.69474C11.1829 9.80225 10.9959 9.85523 10.932 9.8599H9.76343C9.6824 9.8599 9.51256 9.83887 9.30689 9.69707C9.14874 9.58645 8.99292 9.40492 8.841 9.22807C8.61429 8.96474 8.41796 8.73725 8.22007 8.73725C8.19493 8.73714 8.16994 8.74108 8.14606 8.74893C7.99648 8.79724 7.80482 9.0107 7.80482 9.57943C7.80482 9.75706 7.66459 9.85912 7.56564 9.85912H7.03042C6.84811 9.85912 5.89841 9.79524 5.05701 8.90787C4.02706 7.82105 3.09996 5.64118 3.09217 5.62093C3.03374 5.47992 3.15449 5.40434 3.28616 5.40434H4.46646C4.62384 5.40434 4.67526 5.50017 4.7111 5.58509C4.75317 5.68403 4.90742 6.07747 5.16062 6.51999C5.5712 7.24142 5.82284 7.53435 6.02462 7.53435C6.06246 7.5339 6.09962 7.52428 6.13292 7.5063C6.39625 7.35984 6.34716 6.42104 6.33548 6.22627C6.33548 6.18966 6.3347 5.80635 6.19992 5.62249C6.10331 5.48926 5.93893 5.43862 5.8392 5.41993C5.87957 5.36423 5.93274 5.31907 5.99424 5.28826C6.17499 5.19789 6.50064 5.18464 6.82396 5.18464H7.00393C7.35451 5.18932 7.44489 5.21191 7.57188 5.24385C7.82897 5.3054 7.83443 5.47135 7.81183 6.03929C7.80482 6.20056 7.79781 6.38287 7.79781 6.5979L7.79547 6.74748C7.78768 7.03652 7.77833 7.36451 7.98245 7.49929C8.00877 7.51665 8.03974 7.52561 8.07127 7.525C8.14216 7.525 8.35563 7.525 8.93371 6.53323C9.11132 6.21367 9.26622 5.882 9.39726 5.54068C9.40895 5.52043 9.44323 5.4581 9.48374 5.43395C9.51395 5.41959 9.5469 5.41189 9.58035 5.41136H10.9679C11.119 5.41136 11.2226 5.43395 11.2421 5.49238C11.2764 5.58509 11.2359 5.8679 10.6025 6.72566L10.3197 7.09884C9.74551 7.85143 9.74551 7.88961 10.3555 8.46068Z" fill="white"/>
</svg>
