<svg width="15" height="15" viewBox="0 0 15 15" fill="none" xmlns="http://www.w3.org/2000/svg">
<path d="M7.47917 0.0224609C5.99993 0.0224609 4.55391 0.461106 3.32397 1.28293C2.09403 2.10475 1.1354 3.27284 0.569321 4.63947C0.0032406 6.00611 -0.144872 7.50992 0.143713 8.96074C0.432299 10.4116 1.14462 11.7442 2.1906 12.7902C3.23658 13.8362 4.56924 14.5485 6.02006 14.8371C7.47087 15.1257 8.97468 14.9776 10.3413 14.4115C11.708 13.8454 12.876 12.8868 13.6979 11.6568C14.5197 10.4269 14.9583 8.98087 14.9583 7.50163C14.9583 6.51945 14.7649 5.54689 14.389 4.63947C14.0132 3.73206 13.4622 2.90756 12.7677 2.21306C12.0732 1.51855 11.2487 0.967642 10.3413 0.591779C9.43391 0.215915 8.46135 0.0224609 7.47917 0.0224609ZM9.85754 11.3549C9.82963 11.4248 9.78709 11.4879 9.73278 11.5399C9.67846 11.592 9.61364 11.6318 9.54265 11.6568C9.47166 11.6817 9.39615 11.6912 9.32121 11.6845C9.24626 11.6778 9.17361 11.6552 9.10813 11.6182L7.07754 10.0401L5.77467 11.2427C5.74443 11.265 5.70906 11.2794 5.67181 11.2845C5.63457 11.2896 5.59664 11.2853 5.56151 11.2719L5.81132 9.03635L5.8188 9.04308L5.82403 8.99896C5.82403 8.99896 9.4776 5.67222 9.62644 5.53087C9.77752 5.38951 9.72741 5.35885 9.72741 5.35885C9.73638 5.18683 9.45741 5.35885 9.45741 5.35885L4.61615 8.47317L2.60051 7.78658C2.60051 7.78658 2.29087 7.67589 2.2617 7.43132C2.23104 7.189 2.61023 7.05736 2.61023 7.05736L10.6257 3.87274C10.6257 3.87274 11.2846 3.57955 11.2846 4.0657L9.85754 11.3549Z" fill="white"/>
</svg>
